<?xml version="1.0" encoding="UTF-8" standalone="no"?>
<!DOCTYPE svg PUBLIC "-//W3C//DTD SVG 1.1//EN" "http://www.w3.org/Graphics/SVG/1.1/DTD/svg11.dtd">
<svg version="1.1" xmlns="http://www.w3.org/2000/svg" xmlns:xlink="http://www.w3.org/1999/xlink" preserveAspectRatio="xMidYMid meet" viewBox="0 0 640 640" width="640" height="640"><defs><path d="M640.92 247.69C640.92 247.69 640.92 247.69 640.92 247.69C640.92 326.64 640.92 370.5 640.92 379.27C640.92 379.27 640.92 379.27 640.92 379.27C256.92 379.27 43.59 379.27 0.92 379.27C0.92 379.27 0.92 379.27 0.92 379.27C0.92 300.32 0.92 256.46 0.92 247.69C0.92 247.69 0.92 247.69 0.92 247.69C384.92 247.69 598.25 247.69 640.92 247.69Z" id="a2nkyNfNsb"></path><path d="M192.83 334.59C192.83 335.68 192.41 336.56 191.62 337.31C190.83 338.06 189.86 338.44 188.78 338.44C188.77 338.44 188.7 338.44 188.69 338.44C187.61 338.44 186.64 338.06 185.85 337.31C185.06 336.6 184.64 335.68 184.64 334.59C184.64 331.7 184.64 308.59 184.64 305.7C184.64 301.06 186.35 297.05 189.82 293.74C193.29 290.48 197.43 288.81 202.32 288.81C207.21 288.81 211.35 290.44 214.82 293.74C218.29 297.05 220.01 301.02 220.01 305.7C220.01 310.34 218.29 314.31 214.82 317.62C211.4 320.92 207.21 322.59 202.32 322.59C201.69 322.59 198.53 322.59 192.83 322.59C192.83 329.79 192.83 333.79 192.83 334.59ZM202.36 314.77C205 314.77 207.26 313.9 209.14 312.1C210.98 310.34 211.9 308.21 211.9 305.7C211.9 303.19 210.98 301.02 209.14 299.26C207.26 297.46 205 296.59 202.36 296.59C199.73 296.59 197.47 297.46 195.59 299.26C193.75 301.06 192.83 303.19 192.83 305.7C192.83 306.31 192.83 309.33 192.83 314.77C198.55 314.77 201.73 314.77 202.36 314.77Z" id="c47kjMKrU0"></path><path d="M263.03 312.52C263.28 313.06 263.45 313.6 263.45 314.15C263.45 314.61 263.37 315.02 263.2 315.48C262.82 316.49 262.11 317.2 261.07 317.66C257.97 319 253.88 320.75 248.82 322.93C242.55 325.64 238.82 327.23 237.74 327.74C239.41 329.78 242.04 330.79 245.64 330.79C248.02 330.79 250.15 330.12 252.12 328.78C254 327.48 255.34 325.77 256.09 323.68C256.72 321.92 258.02 321.09 259.94 321.09C261.32 321.09 262.41 321.63 263.24 322.72C263.74 323.39 263.99 324.1 263.99 324.85C263.99 325.31 263.91 325.77 263.74 326.23C262.45 329.87 260.15 332.79 256.84 335.01C253.5 337.31 249.78 338.48 245.64 338.48C240.37 338.48 235.81 336.68 232.09 333.13C228.33 329.53 226.45 325.23 226.45 320.21C226.45 315.15 228.33 310.84 232.09 307.29C235.86 303.69 240.37 301.94 245.64 301.94C249.44 301.94 252.96 302.94 256.09 304.91C259.23 306.79 261.53 309.34 263.03 312.52M245.64 309.71C242.59 309.71 239.95 310.76 237.82 312.81C235.69 314.86 234.64 317.37 234.64 320.29C234.64 320.31 234.64 320.38 234.64 320.5C245.81 315.71 252.01 313.05 253.25 312.52C251.58 310.63 249.07 309.71 245.64 309.71" id="c1I7lDvEKu"></path><path d="M278.63 337.31C277.83 338.06 276.87 338.44 275.78 338.44C275.78 338.44 275.71 338.44 275.7 338.44C274.61 338.44 273.65 338.06 272.86 337.31C272.06 336.6 271.65 335.68 271.65 334.59C271.65 332.85 271.65 318.94 271.65 317.2C271.65 312.98 273.23 309.34 276.37 306.33C279.51 303.32 283.31 301.81 287.78 301.81C292.22 301.81 295.98 303.32 299.16 306.33C302.29 309.34 303.88 312.93 303.88 317.2C303.88 318.94 303.88 332.85 303.88 334.59C303.88 335.68 303.46 336.56 302.67 337.31C301.92 338.06 300.96 338.44 299.83 338.44C299.82 338.44 299.75 338.44 299.74 338.44C298.61 338.44 297.69 338.06 296.86 337.31C296.06 336.6 295.65 335.68 295.65 334.59C295.65 332.85 295.65 318.94 295.65 317.2C295.65 315.11 294.89 313.31 293.35 311.85C291.8 310.38 289.92 309.63 287.7 309.63C285.49 309.63 283.6 310.38 282.06 311.85C280.51 313.31 279.76 315.11 279.76 317.2C279.76 318.36 279.76 324.16 279.76 334.59C279.53 335.9 279.16 336.81 278.63 337.31Z" id="c2Cub2okq3"></path><path d="M319.27 289.98C320.06 290.73 320.48 291.65 320.48 292.7C320.48 293.31 320.48 296.38 320.48 301.9C323.47 301.9 325.12 301.9 325.46 301.9C326.54 301.9 327.51 302.27 328.3 303.02C329.09 303.78 329.51 304.7 329.51 305.74C329.51 305.75 329.51 305.78 329.51 305.78C329.51 306.87 329.09 307.75 328.3 308.5C327.51 309.25 326.54 309.63 325.46 309.63C325.12 309.63 323.47 309.63 320.48 309.63C320.48 320.92 320.48 327.19 320.48 328.45C320.48 329.07 320.69 329.57 321.15 329.99C321.61 330.41 322.15 330.62 322.82 330.62C323.09 330.62 325.23 330.62 325.5 330.62C326.59 330.62 327.55 331 328.34 331.75C329.14 332.5 329.55 333.42 329.55 334.47C329.55 334.47 329.55 334.54 329.55 334.55C329.55 335.64 329.14 336.52 328.34 337.27C327.55 338.02 326.59 338.4 325.5 338.4C325.23 338.4 323.05 338.4 322.78 338.4C319.9 338.4 317.43 337.44 315.34 335.47C313.29 333.5 312.29 331.16 312.29 328.4C312.29 324.82 312.29 296.19 312.29 292.61C312.29 291.57 312.7 290.65 313.5 289.9C314.29 289.14 315.25 288.77 316.34 288.77C316.35 288.77 316.37 288.77 316.43 288.77C317.79 289.07 318.74 289.48 319.27 289.98Z" id="c1BOsh7ruQ"></path><path d="M368.61 307.21C372.37 310.8 374.25 315.11 374.25 320.13C374.25 321.57 374.25 333.15 374.25 334.59C374.25 335.68 373.83 336.56 373.04 337.31C372.24 338.06 371.28 338.44 370.19 338.44C370.19 338.44 370.12 338.44 370.11 338.44C369.02 338.44 368.06 338.06 367.27 337.31C366.47 336.6 366.05 335.68 366.05 334.59C363.5 337.14 359.87 338.44 355.02 338.44C349.75 338.44 345.19 336.64 341.47 333.09C337.71 329.49 335.83 325.18 335.83 320.17C335.83 315.11 337.71 310.8 341.47 307.25C345.23 303.65 349.75 301.9 355.02 301.9C360.33 301.85 364.84 303.65 368.61 307.21M347.2 312.72C345.07 314.77 344.02 317.24 344.02 320.17C344.02 323.09 345.07 325.56 347.2 327.65C349.37 329.7 351.96 330.7 355.02 330.7C358.07 330.7 360.66 329.7 362.79 327.65C364.97 325.6 366.01 323.09 366.01 320.17C366.01 317.28 364.93 314.77 362.79 312.72C360.62 310.68 358.03 309.63 355.02 309.63C351.96 309.63 349.37 310.68 347.2 312.72" id="b3goSZoVH"></path><path d="M427.1 296.84C427.85 297.59 428.19 298.47 428.19 299.43C428.19 299.6 428.19 299.72 428.14 299.85C427.98 301.02 427.43 301.9 426.51 302.52C426.51 302.53 426.48 302.6 426.47 302.61C425.72 303.11 424.97 303.36 424.13 303.36C423.96 303.36 423.84 303.36 423.67 303.32C422.67 303.23 421.83 302.82 421.12 302.06C417.61 298.38 413.22 296.59 407.95 296.59C403.02 296.59 398.79 298.26 395.32 301.56C391.85 304.91 390.1 308.92 390.1 313.64C390.1 318.37 391.85 322.38 395.32 325.73C398.79 329.03 403.02 330.7 407.95 330.7C412.38 330.7 416.23 329.32 419.57 326.61C422.88 323.89 424.84 320.88 425.38 317.53C423.72 317.53 410.41 317.53 408.74 317.53C407.61 317.53 406.69 317.16 405.86 316.4C405.06 315.65 404.69 314.77 404.69 313.69C404.69 313.68 404.69 313.61 404.69 313.6C404.69 312.56 405.06 311.64 405.86 310.89C406.65 310.13 407.61 309.76 408.74 309.76C410.86 309.76 427.78 309.76 429.9 309.76C431.03 309.76 431.95 310.13 432.79 310.89C433.58 311.64 433.96 312.56 434 313.6C434 313.61 434 313.64 434 313.64C434 320.5 431.45 326.31 426.39 331.16C421.29 336.01 415.14 338.44 407.95 338.44C400.76 338.44 394.65 336.01 389.55 331.16C384.45 326.31 381.94 320.46 381.94 313.64C381.94 306.79 384.49 300.98 389.55 296.13C394.65 291.28 400.76 288.85 407.95 288.85C415.56 288.85 421.96 291.48 427.1 296.84" id="fhdyB3217"></path><path d="M485.47 296.13C490.57 300.98 493.08 306.83 493.08 313.64C493.08 320.46 490.53 326.31 485.47 331.16C480.37 336.01 474.22 338.44 467.03 338.44C459.84 338.44 453.73 336.01 448.63 331.16C443.53 326.31 441.02 320.46 441.02 313.64C441.02 306.83 443.57 300.98 448.63 296.13C453.73 291.28 459.84 288.85 467.03 288.85C474.22 288.85 480.37 291.28 485.47 296.13M454.44 301.56C450.97 304.91 449.22 308.92 449.22 313.64C449.22 318.37 450.97 322.38 454.44 325.73C457.91 329.03 462.14 330.7 467.07 330.7C472 330.7 476.23 329.03 479.74 325.73C483.21 322.38 484.97 318.37 484.97 313.64C484.97 308.92 483.21 304.91 479.74 301.56C476.27 298.22 472.05 296.59 467.07 296.59C462.14 296.59 457.91 298.26 454.44 301.56" id="e201wLCD0b"></path><path d="M505.49 338.44C504.2 338.44 503.11 338.02 502.19 337.14C501.27 336.26 500.81 335.22 500.81 334.01C500.81 332.79 501.27 331.75 502.19 330.91C503.11 330.03 504.2 329.62 505.49 329.62C506.75 329.62 507.84 330.03 508.76 330.91C509.68 331.75 510.14 332.79 510.14 334.01C510.14 335.26 509.68 336.31 508.76 337.14C507.84 338.02 506.75 338.44 505.49 338.44M508.38 325.94L502.57 325.94L501.4 311.51C501.4 300.22 501.4 293.95 501.4 292.7C501.4 291.65 501.81 290.73 502.61 289.98C503.4 289.23 504.37 288.85 505.45 288.85C505.46 288.85 505.53 288.85 505.54 288.85C506.62 288.85 507.58 289.23 508.38 289.98C509.17 290.73 509.59 291.65 509.59 292.7C509.59 293.95 509.59 300.22 509.59 311.51L508.38 325.94Z" id="aVyPxHMvx"></path><path d="M168.87 338.44C168.87 338.44 168.87 338.44 168.87 338.44C166.49 338.44 164.61 336.6 164.61 334.34C164.61 331.8 164.61 311.5 164.61 308.96C164.61 308.04 164.15 307.21 163.4 306.7C162.21 305.92 152.67 299.63 151.48 298.84C149.56 297.55 146.97 297.55 145.04 298.84C143.84 299.63 134.2 305.96 133 306.75C132.21 307.25 131.75 308.08 131.75 309C131.75 310.9 131.75 326.09 131.75 327.99C131.75 329.49 133.04 330.7 134.59 330.7C135.26 330.7 140.61 330.7 141.28 330.7C142.87 330.7 144.12 329.49 144.12 327.99C144.12 327.48 144.12 324.93 144.12 320.33C142.67 320.33 141.86 320.33 141.7 320.33C140.11 320.33 138.85 319.12 138.85 317.62C138.85 317.39 138.85 315.58 138.85 315.36C138.85 313.85 140.15 312.64 141.7 312.64C142.46 312.64 148.55 312.64 149.31 312.64C150.9 312.64 152.15 313.85 152.15 315.36C152.15 317.12 152.15 331.2 152.15 332.96C152.15 335.97 149.6 338.44 146.46 338.44C144.75 338.44 131.07 338.44 129.36 338.44C126.23 338.44 123.68 335.97 123.68 332.96C123.68 330.3 123.68 309.03 123.68 306.37C123.68 304.57 124.6 302.9 126.14 301.85C128.03 300.62 143.11 290.72 145 289.48C146.97 288.18 149.52 288.22 151.44 289.48C153.31 290.72 168.3 300.62 170.17 301.85C171.72 302.86 172.64 304.57 172.64 306.37C172.64 309.22 172.64 332 172.64 334.84C172.64 336.85 170.96 338.44 168.87 338.44" id="d3QpGNKEQc"></path></defs><g><g><g><use xlink:href="#a2nkyNfNsb" opacity="1" fill="#be2c2d" fill-opacity="1"></use><g><use xlink:href="#a2nkyNfNsb" opacity="1" fill-opacity="0" stroke="#000000" stroke-width="1" stroke-opacity="0"></use></g></g><g><use xlink:href="#c47kjMKrU0" opacity="1" fill="#ffffff" fill-opacity="1"></use><g><use xlink:href="#c47kjMKrU0" opacity="1" fill-opacity="0" stroke="#000000" stroke-width="1" stroke-opacity="0"></use></g></g><g><use xlink:href="#c1I7lDvEKu" opacity="1" fill="#ffffff" fill-opacity="1"></use><g><use xlink:href="#c1I7lDvEKu" opacity="1" fill-opacity="0" stroke="#000000" stroke-width="1" stroke-opacity="0"></use></g></g><g><use xlink:href="#c2Cub2okq3" opacity="1" fill="#ffffff" fill-opacity="1"></use><g><use xlink:href="#c2Cub2okq3" opacity="1" fill-opacity="0" stroke="#000000" stroke-width="1" stroke-opacity="0"></use></g></g><g><use xlink:href="#c1BOsh7ruQ" opacity="1" fill="#ffffff" fill-opacity="1"></use><g><use xlink:href="#c1BOsh7ruQ" opacity="1" fill-opacity="0" stroke="#000000" stroke-width="1" stroke-opacity="0"></use></g></g><g><use xlink:href="#b3goSZoVH" opacity="1" fill="#ffffff" fill-opacity="1"></use><g><use xlink:href="#b3goSZoVH" opacity="1" fill-opacity="0" stroke="#000000" stroke-width="1" stroke-opacity="0"></use></g></g><g><use xlink:href="#fhdyB3217" opacity="1" fill="#ffffff" fill-opacity="1"></use><g><use xlink:href="#fhdyB3217" opacity="1" fill-opacity="0" stroke="#000000" stroke-width="1" stroke-opacity="0"></use></g></g><g><use xlink:href="#e201wLCD0b" opacity="1" fill="#ffffff" fill-opacity="1"></use><g><use xlink:href="#e201wLCD0b" opacity="1" fill-opacity="0" stroke="#000000" stroke-width="1" stroke-opacity="0"></use></g></g><g><use xlink:href="#aVyPxHMvx" opacity="1" fill="#ffffff" fill-opacity="1"></use><g><use xlink:href="#aVyPxHMvx" opacity="1" fill-opacity="0" stroke="#000000" stroke-width="1" stroke-opacity="0"></use></g></g><g><use xlink:href="#d3QpGNKEQc" opacity="1" fill="#ffffff" fill-opacity="1"></use><g><use xlink:href="#d3QpGNKEQc" opacity="1" fill-opacity="0" stroke="#000000" stroke-width="1" stroke-opacity="0"></use></g></g></g></g></svg>